<svg id="michelin-svg-root" xmlns="http://www.w3.org/2000/svg" version="1.1" viewBox="0 0 245.61 356.4">
  <defs>
    <style>
      .mvst0 {
        fill: #fdfefd;
      }

      .mvst1 {
        fill: #fbfcfc;
      }

      .mvst2 {
        fill: #030403;
      }

      .mvst3 {
        fill: #979898;
      }

      .mvst4 {
        fill: #c9c9c9;
      }

      .mvst5 {
        fill: #000201;
      }

      .mvst6 {
        fill: #fafafa;
      }

      .mvst7 {
        fill: #010302;
      }

      .mvst8 {
        fill: #040505;
      }

      .mvst9 {
        fill: #a2a2a2;
      }

      .mvst10 {
        fill: #f5f5f5;
      }

      .mvst11 {
        fill: #f3f3f3;
      }

      .mvst12 {
        fill: #fafbfb;
      }

      .mvst13 {
        fill: #fdfdfd;
      }

      .mvst14 {
        fill: #fcfdfd;
      }
    </style>
  </defs>
  <g id="Objeto_generativo">
    <g>
      <path class="mvst5" d="M128.91,218.03c-.21,8.87-4.27,17.07-11.32,22.35,1.02,6.4-1.22,12.56-6.15,16.68.89,7-1.51,13.73-6.84,18.17-.67.56-.9,1.37-.7,2.18,1.26,7.27-.99,14.19-5.81,19.72-2.64,3.02-5.99,4.95-9.68,6.61l-2.58,8.49c-1.34,4.43-1.91,8.83-2.2,13.49l-.54,8.65c-1.2,8.78-6.61,19.77-15.36,21.73-4.53,1.02-8.91-.7-11.76-4.39-2.45-3.17-3.39-7.05-4.03-11.07-.82-7.35.66-14.46,3.6-21.23,3.33-7.69,5.82-15.4,8.03-23.58-6.31-9.72-5.85-20.7,1.24-30.02-2.64-7.46-1.42-15.36,3.25-21.75.78-1.06,1.09-2.02.79-3.37-1.06-4.71.19-9.4,3.12-13.19l3.79-4.35c-1.96-7.46-.61-14.96,3.9-21.3-3.22-11.61.63-22.03,6.5-32.38-2.43-8.81-.41-18.15,3.64-26.28-1.25-2.65-2.25-5.02-3.05-7.67-1.09-4.56-1.24-9.12-.43-14.03-3.33-.52-6.36-1.39-9.32-2.97-8.36,2.75-17.92,1.34-23.96-4.98-.74-.77-1.22-1.69-2.2-2.31-7.1-.79-12.91-5.38-15.57-12.04-.21-.53-.57-1.49-1.21-1.63-4.9-1.03-8.95-3.52-12.28-7.28s-4.73-8.13-5.02-12.95c-.05-.91-.25-1.57-.86-2.24-5.52-6-6.75-14.6-2.27-21.48.05-.79.14-2.34-.25-3.02-2.01-2.62-3.47-5.27-5.24-8.06C3.91,35.85.95,28.6.08,20.67c-.25-2.3.1-4.41,1.27-6.32-.97-3.11-.02-6.3,3.05-7.16.97-2.02,3.2-3.16,5.43-2.53,3.23.9,5.28-1.69,9.01,2.34,2.38,2.57,4.32,5.38,6,8.47l4.33,7.93c.91-3.26,3.03-5.71,6.27-6.14,1.96-.26,3.88.82,4.8,2.19,2.49,3.72-1.59,7.34-1.62,9.98-.05,4.23-.32,8.23-2.48,11.94l1.64,2.71c5.41,1.89,9.35,6.19,11.1,11.56.39,1.2,6.29,2.69,8.97,10.58.39,1.15,1.49,2.52,3.11,1.92,4.75-1.78,9.74-2.18,14.73-.38,6.15-3.55,11.51-4.64,18.34-2.33,3.95-2.13,7.71-4.29,11.98-6.15-6.3-5.7-8.82-13.1-5.08-20.98l3.57-5.87c.65-1.61.23-3.72.37-5.52.69-8.32,4.77-15.56,11.77-20.11,2.17-5.93,9.79-7.99,15.82-6.12,2.03.63,3.11,2.51,4.62,3.54,9.92,4.14,14.85,12.09,16.66,22.53.18,1.02,1.61,1.71,2.31,2.33,6.79,6.11,8.39,17.4,2.04,24.81,4.53.14,8.78,1.02,13.15,2.22l6.6,1.29c12.44,3.07,20.25,13.17,20.18,26.08l3.21,3.41c3.6,4.77,5.05,10.54,4.45,16.58,2.38,2.21,4.01,4.78,4.68,7.89,2.82,1.33,4.92,3.28,6.54,5.82,1.87,2.78,2.81,5.86,3.31,9.31,7,2.95,10.5,10.32,8.62,17.73-.21.81-.77,2.02-.39,2.9l1.91,4.5,3.49,3.72,8.13,10.76c1.56,2.06,2.28,4.6,2.54,7.22l.79,8.01c.24,2.4.53,4.69.12,7.08-.61,3.56-4.09,6-7.54,4.75l-2.26-1.2c-1.3-.27-1.96-1.38-2.91-2.11-1.12-.85-2.35-1.3-3.28-2.46-1.8,3.3-6.09,4.41-8.73,1.92-2.16-2.04-2.12-5.1-2.8-7.73-.84-3.23-1.54-6.08-1.17-9.56.25-2.4.65-5.28-.27-7.5l-3.38-3.3c-4.51.33-8.65-.88-12.22-3.41-2.29-1.91-4.16-4.05-5.67-6.72-2.89-.51-5.41-1.41-8.11-3.05,2.45,7.82,2.05,17.43-2.44,23.99,6.11,10.45,5,21.46,1.07,32.65,2.07,6.87,1.95,14.08.11,21.1-.92,3.76-2.29,7.12-4.71,10.29,3.19,5.41,3.02,11.94-.78,16.81,2.99,8.1,2.28,16.92-1.91,24.29,2.59,5.09,2.82,10.5,2.05,16.01-1.2,8.58-6.39,15.72-14.67,18.83.41,3.14,1.49,6.16,3.56,8.6,4.39,5.14,13.49,7.32,20.3,8.96,3.47.83,6.74,1.76,9.89,3.34,3.72,1.87,4.65,5.31,5.19,9.53.4,3.11-1.64,5.3-4.61,6.05-5.55,1.41-11.2,1.75-17.03,1.4l-18.87-1.12-17.31-.1c-4.38-.03-10.11-.55-13.43-2.89-1.52-1.7-1.85-3.92-1.41-6.17-.85-3.79-.65-7.57.92-11.09l3.79-8.49c1.61-3.6,2.81-7.25,3.2-11.22l-3.53-3.81c-4.74-6.66-6.26-15.01-4.31-22.94l2.32-5.77c-3.57-8.21-3.3-18.53,2.55-25.46-2.18-4.35-1.67-9.06.4-13.33l-3.58-6.67c-2.01-4.96-2.82-10.05-3.07-15.6-1.3.39-1.8,1.61-1.84,2.82Z"/>
      <g>
        <path class="mvst0" d="M105.19,123.29c-3.71-1.41-6.89-2.82-9.99-5.15,5.57-5.3,9.28-12.03,10.81-19.94,21.13,3.69,45.42,3.81,65.4-4.83,3.98-1.72,7.49-3.81,10.9-6.68,5.6,7.61,7.07,18.34.48,25.61-8.86,9.78-23.75,14.42-36.86,15.69-13.84,1.34-27.52-.01-40.73-4.7Z"/>
        <path class="mvst0" d="M165.33,151.21c-17.43,5.72-38.07,5.92-55.47.25-5.43-1.77-10.81-4.38-14.58-8.68-5.12-5.85-6.17-14.23-4.35-21.81,5.91,3.44,11.14,6.15,17.36,7.91,16.2,4.58,33.23,5.24,49.65,1.44,8.54-1.96,16.23-5.3,23.27-10.78,3.17,7.77,3.36,14.78-.93,21.68-1.13,1.82-2.29,3.25-4.04,4.52-3.32,2.42-6.92,4.17-10.9,5.47Z"/>
        <path class="mvst0" d="M104.02,176.65c-4.63-1.95-9.36-3.91-12.66-7.61-3.28-6.07-1.36-15.32,1.91-21.81,9.99,8.22,23.75,11.72,36.29,12.67,17.45,1.06,38.14-1.2,51.6-13.12,3.39,7.79,3.82,15.36-.52,22.51-1.32.74-2.68.91-4.1,1.3-11.2,3.12-20.95,9.99-32.5,11.84-7.85,1.26-15.57.4-23.3-1.19-5.74-1.18-11.15-2.25-16.71-4.59Z"/>
        <path class="mvst0" d="M117.46,215.78c-11.27.52-24.69-3.96-31.88-12.3-2.25-2.61-2.85-6.6-2.85-9.96,0-5.01,1.3-9.58,3.2-14.06l3.34-6.7c13.63,9.39,29.15,12.89,45.54,14.32.77,12.66-2.86,27.81-17.35,28.7Z"/>
        <path class="mvst0" d="M168.5,208.5c-9.08,1.43-24.21,1.85-32.22-2.65,2.06-5.88,3.17-11.96,2.71-18.47,4.45-.06,8.57-.83,12.81-2.24l15.76-6.55c4.2-1.7,8.14-3.45,12.65-4.35,5.43,6.66,5.38,16.91,2.45,24.8-.79,2.12-1.5,4.72-3.09,6.29-3.42,1.84-7.2,2.56-11.06,3.17Z"/>
        <path class="mvst0" d="M143.5,235.18c-2-.36-3.47-1.28-4.19-2.96-1.92-3.53-3.28-7.27-3.51-11.3l-.64-10.85c6.96,2.19,13.72,2.89,20.85,2.96,7.64.08,14.98-.68,22.23-2.97l3.95-1.47c1.18,3.93,1.03,7.87.51,11.91-.62,4.74-2.15,9.09-5,12.97-9.47,4.36-23.65,3.59-34.19,1.72Z"/>
        <path class="mvst13" d="M192.78,341.31c-6.84.68-13.34.52-20.09-.16-7.46-.75-14.57-.79-22.02-.68-4.53.06-14.02-.41-14.67-3.5-.52-2.49.18-4.93.97-7.27l3.15-6.94c1.72-3.8,3.1-7.61,3.69-11.86,5.75,2.09,11.7,2.87,17.84,2.19,1.7,9.87,7.31,14.24,16.3,17.46l12.5,3.57c4.13,1.18,9.64,2.31,9.51,5.91l-7.17,1.27Z"/>
        <path class="mvst0" d="M173.91,275.8c-.95,1.34-3.03,1.92-4.48,2.28-7.83,1.92-15.72,2.25-23.69.91-2.42-.41-5.45-1.37-6.84-3.48-3.83-5.85-3.6-17.53,1.93-22.28,7.58,2.03,14.98,3.14,22.72,2.92l12.8-1.56c.76.89.77,1.84.97,2.94,1.1,6.24.42,12.88-3.41,18.28Z"/>
        <path class="mvst13" d="M175.73,294.58c-1.4,6.09-5.24,10.63-11.1,12.74-7.91,2.85-19.8,1.91-24.67-4.92-4.59-6.44-5.43-14.96-2.48-22.33,2.84,1.64,5.64,2.89,8.91,3.35,6.01.84,11.93.72,17.95-.04,3.79-.5,7.26-1.64,10.88-3.09,1.79,4.66,1.64,9.4.51,14.28Z"/>
        <path class="mvst0" d="M124.37,218.6c-.43,9.76-5.85,19.1-16.18,20.34-14.46,1.75-29.99-9.02-28.77-24.68.22-2.88.93-5.52,2.69-7.95,2.55,2.75,5.26,4.99,8.49,6.96,9.5,5.59,22.86,8.69,33.77,5.32Z"/>
        <path class="mvst0" d="M99.94,278.2c.83,6.7-1.5,13.17-6.58,17.62-7.74,6.79-19.74,5.99-26.14-2.21-4.71-6.04-5.34-17.17-.06-23.68,7.75,10.2,21.08,12.7,32.78,8.26Z"/>
        <path class="mvst13" d="M92.57,258.66c5.03.95,9.71.94,14.7-.01.66,6.66-2.73,12.73-8.92,15.49-9.36,4.18-21.1,1.77-27.42-6.55-4.58-6.03-3.99-14.56.21-20.62,2.87,3.47,5.76,6,9.5,7.73,3.71,2,7.59,3.22,11.93,3.96Z"/>
        <path class="mvst13" d="M113.68,242.02c.26,6.92-2.88,12.31-9.88,12.95-7.48.69-15.02-.82-21.69-4.22-2.95-1.5-5.61-3.4-7.35-6.2-3.52-5.68-2.04-12.91,3.11-17.06,4.04,7.87,12,13.13,20.53,15.11,5.13,1.24,10.26,1.2,15.28-.58Z"/>
        <path class="mvst0" d="M141.7,249.78c-2.14-.9-2.67-7.54-.18-11.12,8.97,1.78,17.88,2.27,26.87,1.27,3.06-.34,5.81-1,8.69-2.1,3.12,4.1,2.86,9.55-.77,13.16-8.62,2.27-17.3,2.59-26.05.85-2.92-.58-5.69-.85-8.57-2.07Z"/>
        <path class="mvst13" d="M237.24,180.39c-1.93-3.34-4.84-5.6-8.15-7.33-7.08,4.89-1.32,9.29-2.8,12.39-.33.68-1.12,1.72-2.31,1.59-1.07-.12-1.59-1.51-1.74-2.47l-.8-4.85c-1-2.65-1.37-5.12-.91-7.96s.26-5.66-.41-8.5l2.93-2.33-4.64-.18c-.89-.03-1.51-1.23-2.17-1.89,3.81-2.09,6.79-4.82,9.49-8.26.49.76,1.22,1.88.99,2.86l-.74,3.14c1.01-.08,1.67-1.77,2.82-1.48.32.08.43.49.7.78,3.86,4.16,7.5,8.43,10.02,13.55l1.16,4.6-3.06-3.94c-.31,1.88.82,3.49,1.76,5.16,3.42,6.09,3.73,14.66.53,14.25-2.44-.31-.43-5.24-2.68-9.12Z"/>
        <path class="mvst13" d="M196.5,146.92c-4.68.22-8.38-2.82-10.19-6.49.53-1.4.79-2.43.97-4.04,6.75.27,12.83-2.35,17.51-7.16,3.39-3.48,5.31-7.64,5.57-12.71,7.25,4.1,7.56,15.16,3.03,21.34-3.89,5.33-10.08,8.73-16.88,9.06Z"/>
        <path class="mvst13" d="M209.73,156.34c-4.42.53-8.11-2.51-10.13-6.11,10.41-2.37,18.74-9.05,20.17-19.9,4.87,2.96,6.63,8.51,4.83,13.82-2.12,6.22-7.93,11.36-14.87,12.19Z"/>
        <path class="mvst13" d="M187.77,132.97c.24-3.73-.14-6.87-.49-10.43,7.82-3.13,12.02-7.75,16.93-14.55,2.22,2.67,2.95,5.96,2.49,9.32-1.32,9.6-9.2,15.29-18.93,15.67Z"/>
        <path class="mvst13" d="M186.54,118.44c-.89.26-1.17-.93-1.3-1.4-.19-.67.31-1.51.85-2.09,3.87-4.18,5.65-9.56,5.38-15.29-.07-1.57.24-2.73,1.24-3.93,1.73-2.08,3.04-4.41,4.11-6.97,2.13,1.48,2.96,3.57,3.71,5.73,1.9,5.47,1.02,11.12-2.54,15.67-2.95,3.76-6.6,6.88-11.45,8.27Z"/>
        <path class="mvst13" d="M190.05,92.16c-1.13-3.31-2.78-5.96-4.66-8.82,4.13-6.62,2.23-12.63-1.65-19.01,3.64,1.93,5.97,5,7.91,8.55,3.42,6.27,2.88,13.67-1.59,19.28Z"/>
        <path class="mvst14" d="M200.32,342.16c.41.18.37,1.12.13,1.4-1.94,2.23-14.11,2.48-19.22,2.18l-18.6-1.09-16.68-.07c-4.08-.02-10.69-.85-9.55-3.81,2.38.84,4.5,1.42,6.85,1.5l12.14.41,17.33.69c8.65.81,19.11,1.16,27.61-1.22Z"/>
        <path class="mvst6" d="M73.5,348.29c.6-.27.56.02.27.55-1.58,1.86-3.57,3.46-5.95,4.21-3.43,1.08-6.76-.16-9.04-2.86-2.04-2.42-3.01-5.39-3.63-8.44-.08-.82.08-.99.47-.52.79,2.53,1.99,4.82,3.66,6.9,3.78,4.72,10.25,3.74,14.23.14Z"/>
        <path class="mvst10" d="M234.04,185.91c-1.1-.32-1.58-1.56-1.38-2.66l.83-4.61c.54.78,1.55,1.72,1.39,2.61l-.84,4.66Z"/>
        <path class="mvst11" d="M230.76,177.61l-1.18,4.88c-1.23-2.24-1.64-4.59-.13-6.67.44.33,1.48,1.07,1.31,1.79Z"/>
        <path class="mvst4" d="M236.66,187.95c-1.06-1.49-1.01-3.28-.24-4.98.32,1.66.47,3.1.24,4.98Z"/>
        <path class="mvst3" d="M73.76,348.84l-.27-.55,1.86-1.69c-.34.89-.98,1.5-1.6,2.24Z"/>
        <path class="mvst9" d="M55.62,341.25c-.28.03-.39.3-.47.52-.14-.69-.46-1.35-.06-2.21l.53,1.69Z"/>
        <g>
          <path class="mvst13" d="M68.37,348.75c-3.17,1.24-6.43.11-8.19-2.88-3.5-5.96-5.12-13.5-3.2-20.36l6.83-17.94,1.89-4.95.89,2.6,1.52-4.99c4.32,3.4,9.2,4.72,14.67,4.38-1.17,3.82-1.78,7.47-1.93,11.38l-.57,14.95c-.03,7.04-5.42,15.28-11.91,17.82Z"/>
          <path class="mvst8" d="M76.12,333.77c-5.35-.73-10.28-1.73-15.57-1.52-.2,0-.75-.27-.84-.42-.88-1.43,7.94-2.03,12.62-.5,1.35.58,3.02.53,3.8,2.45Z"/>
        </g>
        <g>
          <path class="mvst0" d="M157.38,93.35c-13.84,3.28-27.69,3.71-41.59,1.84l-9.24-1.48c.09-9-2.69-17.34-8.15-24.58,3.99-2.65,7.98-4.5,12.19-6.12,2.58,1.94,5.29,3.65,8.52,3.47-2.02-1.72-4.11-2.48-5.34-4.64,1.55.29,3.05.52,4.19-.43-5.84-2.61-10.45-4.98-12.86-10.88-1.95-4.75-.99-9.63,2.04-13.58,1.67-2.18,3.35-3.96,6.23-5.03-1.58-.8-2.81-.07-4.34.61-.74-7.72,1.81-15.75,7.43-20.55,2.17-1.86,4.28-3.35,6.98-4.6l-2.14-.65c2.77-3.4,9.2-3.9,12.06-.64-.76.26-1.49,0-2.05.77,10.19.65,16.96,11.46,17.74,20.74h-1c-.16,0-.17.44.06.61,3.45,2.57,6.58,5.62,8.37,9.52,2.12,4.63,1.43,9.58-1.71,13.46-2.49,3.08-5.55,5.26-9.1,7.55,1.45.49,2.73-.29,4.12-.65-.37,2.35-2.27,3.57-3.39,5.77,2.98-.7,4.89-2.82,6.47-5.31,7.59-.42,15.35.85,22.05,4.51s11.47,13.1,6.15,18.86c-5.43,5.87-15.48,9.48-23.68,11.42Z"/>
          <g>
            <path class="mvst7" d="M129.51,31.72c-.87,2.23-2.83,3.63-4.85,3.73-2.19.11-4.26-1.05-5.22-3.15-2.73-5.95.94-12.86,5.25-12.71,4.54.15,6.83,6.98,4.82,12.14Z"/>
            <path class="mvst12" d="M122.27,25.75c.67.57,1.3,1.07,1.32,1.69.03.73-.15,1.67-1.05,1.87-.49.11-1.12-.55-1.38-.91-.62,1.32-.01,2.37-.18,3.66-1.86-2.91-1.24-6.91,1.06-9.46.79-.87,1.87-1.38,2.93-1.33,3.69.19,5.55,6.64,3.05,10.76.33-2.62.31-4.97-1.42-6.91-1.2-1.34-3.5-1.05-4.34.61Z"/>
          </g>
          <g>
            <path class="mvst7" d="M141.74,19.56c3.93,3.74,4.44,12.2-.58,14.17-1.54.61-3.46.44-4.78-.75-3.44-3.13-4.28-8.68-1.73-12.51.82-1.23,2.01-2.01,3.12-2.2,1.41-.24,2.85.22,3.97,1.28Z"/>
            <path class="mvst1" d="M136.67,24.29c1.07.68,1.73,1.45,1.59,2.51-.08.6-.5,1.12-.99,1.17s-.91-.32-1.55-.89l-.03,3.06c-2.73-3.82-.82-9.88,2.56-10.25,3.69-.41,6.8,6.22,4.65,10.28.21-3.76-1.5-7.4-4.03-7.22-.77.06-1.61.3-2.19,1.34Z"/>
          </g>
          <g>
            <path class="mvst2" d="M124.56,44.75c-1.32-.84-2.84-.66-4.13-1.69-.55.65-.66,1.26-1.44,1.67-.9-2.17,1.01-4.29,3.43-4.41l-.76,1.81c5.63,1.66,11.47,1.5,17.2.43,3.17-.59,6.84-1.84,5.43-3.81.88-.31,1.72.24,2.12.81.57.81.83,1.76.2,2.62-.76-2-3.46.75-5.28,3.16s-4.83,4.09-7.96,3.87c-1.77-.13-3.3-.95-4.72-1.86l-4.1-2.6Z"/>
            <path class="mvst12" d="M133.52,47.63c-2.39-.3-4.41-1.43-5.97-2.98,4.44.52,8.47-.02,12.78-.7-1.3,2.32-3.87,4.04-6.8,3.68Z"/>
          </g>
        </g>
        <g>
          <path class="mvst13" d="M36.83,47.82c7.13,2.48,11.31,11.35,7.27,17.78-3.64,5.8-10.14,9.77-17.14,9.72-4.41-.03-8.44-2.4-10.53-6.08-2.34-4.11-2.15-9.07-.09-13.14,2.22,1.34,4.56,1.89,6.58.56-3.98-.75-6.66-3.95-4.91-5.26.79-.59,1.91-.86,2.42-1.94-1.05-.3-2.97.06-3.81-.87-6.56-9.36-11.85-16.97-13.28-28.57-.3-2.4.21-4.49,1.66-4.33,1.97.21.71,5.98,4.66,11.15.36.47.85.7,1.27.31.24-.22.37-.86.04-1.28-3.93-5.08-1.52-11.27-6.57-12.46-.77-.46-.25-3,.8-3.16,1.3-.2,2.06,1.17,2.54,2.19,1.95,4.22,3.68,8.4,6.33,12.17.26.37.95.51,1.27.42.28-.07.62-.35.75-.8.14-.49-.44-.74-.74-1.17-2.61-3.71-4.5-7.65-6.57-11.68-.4-.78-1.26-1.46-1.28-2.35-.02-.74.84-1.26,1.34-1.23.53.02,1.47.17,1.91.7,4.03,4.93,7.19,15.85,10.51,14.59,1.48-.56-1.34-1.97-2.92-4.93l-3.51-6.56c-.6-1.12-1.66-1.88-2.07-3.24,1.07-.76,2.57-.41,3.51.58,2.62,2.76,4.59,5.9,6.4,9.3l5.5,10.32c.39.73-1.73,2.03-1.08,3.06s3.9-.27,4.64-5.26c.32-2.12.97-4.22,2.67-5.44.89-.64,1.94-.68,2.59-.13,2.15,1.83-2.03,4.02-2.01,10.85.01,3.68-1.16,7.2-3.29,10.11-.75,1.02-1.57,1.84-1.93,3.13,1.23.15,2.14-.58,3.17-1.35,1.89,1.85.8,5.29-.18,8.34,1.93-.81,2.85-2.24,4.05-4.06Z"/>
          <path class="mvst0" d="M82.52,108.64c-4.21,6.31-11.95,8.48-19.04,6.43-3.11-.9-6.12-2.19-8.08-4.94,7.93-2.47,13.51-8.3,15.83-15.91,2.49-8.16.82-16.45-5.27-23.07,6.19-1.35,12.87,1.03,16.28,6.22,3.14,4.79,4.21,10.29,4.28,15.98s-.97,10.74-4,15.28Z"/>
          <path class="mvst0" d="M96.87,110.74c-3.94,5.36-8.67,7.46-14.97,4.32,4.37-3.77,6.82-8.47,7.79-14.1,1.44-10.01-.08-23.97-8.34-30.57,3.64-2.12,8.33-2.61,11.92-.23,3.28,2.18,5.29,5.66,6.82,9.21,2.84,6.58,3.33,13.5,1.6,20.42-.99,3.97-2.39,7.64-4.82,10.95Z"/>
          <path class="mvst13" d="M29.53,91.53c-5.11-2.87-8.12-7.95-8.7-13.69,9.28,2.56,18.41-1,24.35-8.07,2.04-2.54,3.15-5.3,3.75-8.72,1.5.68,2.57,1.75,3.41,3.16,3.2,5.41,3.88,12.13,1.11,17.91-4.24,8.84-15.31,14.24-23.93,9.4Z"/>
          <path class="mvst13" d="M55.21,105.95c-7.39,2.54-13.5-1.6-16.51-8.47.02-.46,1.11-.89,1.46-.93,5.02-1.14,9.32-3.61,12.65-7.5,4.24-4.64,6.59-10.42,6.15-16.92,2.45.31,4.33,1.69,5.82,3.53,4.19,5.17,4.81,11.94,2.55,18.13-2.11,5.76-6.25,10.15-12.13,12.17Z"/>
        </g>
      </g>
    </g>
  </g>
</svg>